<?xml version="1.0" encoding="iso-8859-1"?>
<!-- Uploaded to: SVG Repo, www.svgrepo.com, Generator: SVG Repo Mixer Tools -->
<svg fill="#000000" version="1.1" id="Layer_1" xmlns="http://www.w3.org/2000/svg" xmlns:xlink="http://www.w3.org/1999/xlink" 
	 viewBox="0 0 503.795 503.795" xml:space="preserve">
<g>
	<g>
		<g>
			
				<rect x="184.642" y="347.728" transform="matrix(-0.7071 -0.7071 0.7071 -0.7071 329.6953 865.5884)" width="318.95" height="33.569"/>
			<path d="M486.605,364.555L246.267,124.217c3.064-2.728,5.791-5.699,7.781-9.124l7-11.994c5.993-10.282,7.16-21.865,3.181-31.769
				c-6.438-15.99-23.779-25.524-47.591-26.146c-13.522-0.411-27.757,2.149-40.742,6.967c-0.21-0.747-0.445-1.486-0.445-2.275
				c0-2.199,0.856-4.247,2.392-5.766c4.868-4.818,7.579-11.507,7.462-18.348c-0.117-6.941-3.005-13.362-8.125-18.079
				c-4.742-4.373-10.97-6.631-17.618-6.329c-7.235,0.319-14.235,3.651-19.213,9.132c-16.921,18.625-19.624,45.811-7.756,67.475
				C54.527,137.437-20.368,264.79,5.048,448.859c2.249,16.418,10.777,30.98,23.997,41.002c10.903,8.259,23.904,12.607,37.334,12.607
				c2.871,0,5.75-0.201,8.637-0.596c16.426-2.266,30.98-10.794,40.994-24.014s14.277-29.545,12.003-45.971
				c-11.717-84.942,15.99-201.224,81.039-273.651l57.915,57.898l-11.877,11.877l89.231,89.231v-18.264
				c0-4.633,3.76-8.393,8.393-8.393c4.633,0,8.393,3.76,8.393,8.393v35.051l16.787,16.787v-18.264c0-4.633,3.76-8.393,8.393-8.393
				s8.393,3.76,8.393,8.393v35.051l16.787,16.787v-18.264c0-4.633,3.76-8.393,8.393-8.393s8.393,3.76,8.393,8.393v35.051
				l16.787,16.787v-17.836c0-4.642,3.76-8.393,8.393-8.393c4.633,0,8.393,3.752,8.393,8.393v34.623l18.793,18.793l5.985-5.985
				c11.079-11.088,17.19-25.827,17.19-41.497C503.795,390.382,497.684,375.643,486.605,364.555z M67.336,468.885
				c-18.516,0-33.574-15.058-33.574-33.574c0-18.516,15.058-33.574,33.574-33.574c18.516,0,33.574,15.058,33.574,33.574
				C100.909,453.828,85.852,468.885,67.336,468.885z M149.449,66.16c-1.066,0.672-2.115,1.36-3.164,2.048
				c-7.411-15.167-5.12-33.658,6.488-46.441c1.964-2.157,4.776-3.517,7.537-3.643c0.126,0,0.252-0.008,0.394-0.008
				c1.469,0,3.425,0.369,5.103,1.914c1.712,1.57,2.669,3.718,2.711,6.035c0.05,2.317-0.839,4.482-2.484,6.119
				c-4.734,4.684-7.353,10.953-7.369,17.651c-0.008,3.29,0.604,6.48,1.796,9.451c-1.259,0.713-2.476,1.435-3.651,2.182
				L149.449,66.16z M189.041,133.148c-16.199,0-29.377-13.178-29.377-29.377s13.178-29.377,29.377-29.377
				s29.377,13.178,29.377,29.377S205.24,133.148,189.041,133.148z"/>
			<path d="M67.336,418.525c-9.258,0-16.787,7.529-16.787,16.787c0,9.258,7.529,16.787,16.787,16.787
				c9.258,0,16.787-7.529,16.787-16.787C84.122,426.054,76.594,418.525,67.336,418.525z"/>
			<path d="M189.041,91.18c-6.941,0-12.59,5.649-12.59,12.59c0,6.941,5.649,12.59,12.59,12.59c6.941,0,12.59-5.649,12.59-12.59
				C201.631,96.829,195.982,91.18,189.041,91.18z"/>
		</g>
	</g>
</g>
</svg>